# xmcd CD database file
#
# Track frame offsets:
#	150
#	5125
#	18727
#	52227
#	68780
#	78960
#	92965
#	162737
#	182434
#	206377
#	223205
#	236727
#
# Disc length: 3353 seconds
#
# Revision: 0
# Processed by: cddbd v1.4PL0 Copyright (c) Steve Scherf et al.
# Submitted via: NeoAudio 1.5.6
#
DISCID=af0d170c
DTITLE=Ricardo Arjona and Facundo Cabral - Tiempo De Bohemia
DYEAR=1900
DGENRE=Salsa
TTITLE0=Yo Fui Todos Los Hombres
TTITLE1=La Mujer Que Yo Sone
TTITLE2=El Dia Que To Me Vaya
TTITLE3=Que Voy A Hacer Conmigo
TTITLE4=Distancia Es Un Fuego Lento
TTITLE5=Piel De Consumo
TTITLE6=Destino Luz
TTITLE7=Gitano Urbano
TTITLE8=America
TTITLE9=Siempre A Lo Mismo
TTITLE10=De Ahi Soy Yo
TTITLE11=Nina De La Noche
EXTD=
EXTT0=
EXTT1=
EXTT2=
EXTT3=
EXTT4=
EXTT5=
EXTT6=
EXTT7=
EXTT8=
EXTT9=
EXTT10=
EXTT11=
PLAYORDER=
